<svg xmlns="http://www.w3.org/2000/svg" viewBox="0 0 1600 1000" role="img" aria-labelledby="title">
  <title id="title">Atlas Studio project detail placeholder</title>
  <rect width="1600" height="1000" fill="#17151e"/>
  <rect x="110" y="100" width="1380" height="800" rx="36" fill="#f7f5fb"/>
  <rect x="170" y="165" width="250" height="60" rx="18" fill="#dad1ff"/>
  <rect x="1080" y="165" width="350" height="60" rx="18" fill="#ece9f1"/>
  <g transform="translate(170 300)">
    <rect width="380" height="500" rx="28" fill="#e8e3ff"/>
    <rect x="430" width="380" height="500" rx="28" fill="#7760ec"/>
    <rect x="860" width="400" height="500" rx="28" fill="#25212e"/>
    <circle cx="90" cy="100" r="35" fill="#fff"/>
    <circle cx="520" cy="100" r="35" fill="#b9aaff"/>
    <circle cx="950" cy="100" r="35" fill="#8b75ff"/>
    <g fill="#9b91b1"><rect x="55" y="180" width="260" height="18" rx="9"/><rect x="55" y="225" width="210" height="18" rx="9"/></g>
    <g fill="#c9bfff"><rect x="485" y="180" width="260" height="18" rx="9"/><rect x="485" y="225" width="190" height="18" rx="9"/></g>
    <g fill="#5f566c"><rect x="915" y="180" width="270" height="18" rx="9"/><rect x="915" y="225" width="220" height="18" rx="9"/></g>
  </g>
</svg>
